<?xml version="1.0" encoding="utf-8"?>
<svg version="1.1" id="Layer_1" x="0px" y="0px" viewBox="0 0 1920 1080" style="enable-background:new 0 0 1920 1080;" xmlns="http://www.w3.org/2000/svg">
  <style type="text/css">
	.st0{fill:#534741;}
	.st1{fill:#FFFFFF;}
	.st2{fill:#E6E6E6;}
	.st3{stroke:#000000;stroke-miterlimit:10;}
</style>
  <rect x="103.126" y="455.551" width="178.969" height="11.672" style=""/>
  <path class="st0" d="M 1422.634 506.129 L 223.151 506.129 C 204.127 506.129 188.719 490.721 188.719 471.697 L 188.719 279.849 C 188.719 260.824 204.127 245.417 223.151 245.417 L 1422.673 245.417 C 1441.698 245.417 1457.105 260.824 1457.105 279.849 L 1457.105 471.697 C 1457.066 490.721 1441.66 506.129 1422.634 506.129 Z" style=""/>
  <g style="" transform="matrix(3.890633, 0, 0, 3.890633, -1418.112305, -1645.391724)">
    <path class="st1" d="M447.16,495.4v27.12c0,4.26-0.3,7.46-0.91,9.6c-0.6,2.14-2.07,4.21-4.39,6.2c-2.32,1.99-5.22,2.99-8.7,2.99 c-2.88,0-5.12-0.65-6.7-1.95c-1.58-1.3-2.37-2.76-2.37-4.38c0-1.16,0.41-2.22,1.24-3.18c0.83-0.96,1.93-1.43,3.31-1.43 c1.21,0,2.24,0.4,3.09,1.18c0.85,0.79,1.27,1.81,1.27,3.05c0,1.1-0.58,2.35-1.75,3.74c0,0.6,0.7,0.9,2.1,0.9 c2.25,0,3.37-1.4,3.37-4.21V495.4H431v-2.03h21.57v2.03H447.16z"/>
    <path class="st1" d="M470.89,520.84v-5.61c0-1.52-0.19-2.59-0.57-3.21c-0.38-0.62-1.36-0.94-2.93-0.94c-1.25,0-2.23,0.18-2.93,0.55 c-0.7,0.36-1.05,0.73-1.05,1.11c0,0.25,0.25,0.62,0.75,1.12c0.5,0.5,0.75,1.12,0.75,1.87c0,1.08-0.41,2.01-1.24,2.79 s-1.87,1.17-3.12,1.17c-1.15,0-2.13-0.37-2.96-1.11c-0.83-0.74-1.24-1.64-1.24-2.7c0-1.83,1.11-3.38,3.32-4.66 c2.22-1.28,5.29-1.92,9.21-1.92c3.03,0,5.57,0.37,7.62,1.12c2.05,0.75,3.07,2.44,3.07,5.06v13.17c0,2.27,0.65,3.4,1.94,3.4 c0.36,0,0.86-0.2,1.5-0.59l0.86,1.4c-1.8,2.06-3.89,3.09-6.27,3.09c-2.48,0-4.56-1.26-6.23-3.77c-2.78,2.51-5.86,3.77-9.26,3.77 c-2.29,0-4.09-0.59-5.41-1.76c-1.32-1.18-1.97-2.64-1.97-4.39C454.73,524.24,460.12,521.26,470.89,520.84z M470.89,526.56v-4.06 c-2.86,0.1-4.86,0.55-5.98,1.33c-1.12,0.78-1.69,2.09-1.69,3.92c0,1.42,0.35,2.53,1.05,3.35c0.7,0.81,1.6,1.22,2.7,1.22 c1.25,0,2.22-0.41,2.89-1.22C470.55,530.28,470.89,528.77,470.89,526.56z"/>
    <path class="st1" d="M498.28,492.79v29.01l6.78-6.4c0.04-0.06,0.39-0.43,1.04-1.11c0.65-0.68,0.97-1.12,0.97-1.33 c0-0.63-0.75-0.94-2.26-0.94h-1.79v-1.93h13.49v1.93h-0.95c-1.57,0-2.83,0.15-3.79,0.44c-0.95,0.29-2.07,1.06-3.34,2.31l-3.12,3.05 l11.45,15.46h2.54v1.9h-16.29v-1.9h3.4l-8.02-11.14h-0.13v11.14h2.93v1.9h-15.17v-1.9h3.66v-38h-3.66v-1.9h2.93l7.64-0.59H498.28z"/>
    <path class="st1" d="M544.79,521.15h-15.65v4.06c0,3.19,0.29,5.39,0.88,6.61c0.58,1.22,1.92,1.83,4.02,1.83 c1.85,0,3.57-0.58,5.17-1.75c1.6-1.16,2.83-2.97,3.67-5.42h1.91c-0.78,3.16-2.24,5.53-4.36,7.11c-2.12,1.58-4.67,2.37-7.64,2.37 c-4.05,0-7.29-1.36-9.72-4.09c-2.43-2.73-3.64-5.87-3.64-9.42c0-3.41,1.23-6.45,3.69-9.13c2.46-2.67,5.54-4.01,9.23-4.01 c3.18,0,5.95,0.98,8.3,2.93C543.01,514.19,544.39,517.16,544.79,521.15z M529.14,519.12h6.84v-2.62c0-2.26-0.31-3.74-0.94-4.41 s-1.48-1.01-2.56-1.01c-1.02,0-1.83,0.3-2.43,0.9c-0.6,0.6-0.91,2.13-0.91,4.58V519.12z"/>
  </g>
  <path class="st2" d="M 1797.069 797.926 L 214.437 797.926 C 200.236 797.926 188.719 786.41 188.719 772.209 L 188.719 531.846 C 188.719 517.644 200.236 506.129 214.437 506.129 L 1797.069 506.129 C 1811.269 506.129 1822.786 517.644 1822.786 531.846 L 1822.786 772.209 C 1822.786 786.41 1811.269 797.926 1797.069 797.926 Z" style=""/>
  <g style="" transform="matrix(3.890633, 0, 0, 3.890633, -1418.112305, -1645.391724)">
    <path d="M429.44,605.15V567.4h-5.34v-2.03h21.63c6.26,0,11.21,1.94,14.86,5.83c3.65,3.88,5.47,8.79,5.47,14.71 c0,3.08-0.56,5.96-1.67,8.67c-1.11,2.7-2.83,5.16-5.14,7.37s-4.68,3.64-7.11,4.27c-2.43,0.63-5.41,0.95-8.96,0.95H424.1v-2.03 H429.44z M439.88,567.4v37.75h3.37c5.15,0,8.27-1.48,9.34-4.45c1.07-2.96,1.61-8.03,1.61-15.21c0-5.62-0.33-9.65-0.99-12.11 c-0.66-2.45-1.65-4.07-2.99-4.83c-1.34-0.77-3.03-1.15-5.09-1.15H439.88z"/>
    <path d="M486.26,592.84v-5.61c0-1.52-0.19-2.59-0.57-3.21c-0.38-0.62-1.36-0.94-2.93-0.94c-1.25,0-2.23,0.18-2.93,0.55 c-0.7,0.36-1.05,0.73-1.05,1.11c0,0.25,0.25,0.62,0.75,1.12c0.5,0.5,0.75,1.12,0.75,1.87c0,1.08-0.41,2.01-1.24,2.79 s-1.87,1.17-3.12,1.17c-1.15,0-2.13-0.37-2.96-1.11s-1.24-1.64-1.24-2.7c0-1.83,1.11-3.38,3.32-4.66c2.22-1.28,5.29-1.92,9.21-1.92 c3.03,0,5.57,0.37,7.62,1.12c2.05,0.75,3.07,2.43,3.07,5.06v13.17c0,2.27,0.65,3.4,1.94,3.4c0.36,0,0.86-0.2,1.5-0.59l0.86,1.4 c-1.8,2.06-3.89,3.09-6.27,3.09c-2.48,0-4.56-1.26-6.23-3.77c-2.78,2.51-5.86,3.77-9.26,3.77c-2.29,0-4.09-0.59-5.41-1.76 c-1.32-1.18-1.97-2.64-1.97-4.39C470.1,596.24,475.48,593.26,486.26,592.84z M486.26,598.56v-4.07c-2.86,0.1-4.86,0.55-5.98,1.33 c-1.12,0.78-1.69,2.09-1.69,3.92c0,1.42,0.35,2.53,1.05,3.35c0.7,0.81,1.6,1.22,2.7,1.22c1.25,0,2.22-0.41,2.89-1.22 C485.92,602.28,486.26,600.77,486.26,598.56z"/>
    <path d="M499.11,582.08h16.7v1.93h-4.72l5.5,13.4l6.73-15.34h2.05l7.69,15.34l3.72-10.73c0.32-0.89,0.48-1.51,0.48-1.87 c0-0.54-0.68-0.81-2.03-0.81h-2.16v-1.93h10.24v1.93h-1.18c-1,0-1.68,0.15-2.05,0.44c-0.37,0.29-0.81,1.14-1.32,2.56l-7.6,20.95 h-2.19L521.24,592l-6.97,15.96h-2.17l-9.95-23.94h-3.03V582.08z"/>
    <path d="M564.87,581.31v7.76h-1.94c-1.19-3.91-3.75-5.86-7.7-5.86c-1.48,0-2.77,0.35-3.85,1.05s-1.62,1.55-1.62,2.55 c0,0.86,0.42,1.51,1.25,1.97c0.84,0.46,2.97,0.85,6.41,1.18s5.87,1.22,7.29,2.67c1.42,1.46,2.13,3.32,2.13,5.59 c0,2.85-0.9,5.19-2.69,7.01c-1.79,1.82-4.22,2.73-7.27,2.73c-3.01,0-5.49-0.87-7.44-2.62l-2,1.59h-1.46v-9.13h1.91 c1.38,5.4,4.4,8.11,9.07,8.11c1.67,0,3.12-0.39,4.34-1.16c1.22-0.77,1.83-1.75,1.83-2.94c0-0.83-0.32-1.51-0.97-2.03 c-0.65-0.52-2.18-0.92-4.61-1.19s-4.43-0.64-6-1.1c-1.57-0.46-2.85-1.32-3.85-2.55c-1-1.24-1.5-2.89-1.5-4.95 c0-2.37,0.85-4.41,2.54-6.12c1.7-1.71,4.04-2.56,7.03-2.56c2.12,0,4.16,0.59,6.11,1.78l1.5-1.78H564.87z"/>
    <path d="M584.32,607.96c-4.27,0-7.68-1.33-10.22-3.99c-2.55-2.66-3.82-5.76-3.82-9.3c0-3.58,1.29-6.7,3.89-9.36 c2.59-2.66,5.98-4,10.16-4c4.23,0,7.64,1.32,10.24,3.95c2.6,2.63,3.9,5.77,3.9,9.41c0,3.62-1.29,6.74-3.87,9.36 S588.59,607.96,584.32,607.96z M584.32,582.9c-1.13,0-2.03,0.26-2.71,0.79c-0.68,0.53-1.1,1.34-1.25,2.43 c-0.15,1.09-0.22,3.93-0.22,8.53c0,4.47,0.07,7.21,0.21,8.23c0.14,1.02,0.56,1.84,1.28,2.48c0.71,0.63,1.68,0.95,2.89,0.95 c0.98,0,1.84-0.28,2.57-0.83c0.73-0.55,1.18-1.55,1.33-2.99c0.15-1.44,0.22-3.89,0.22-7.34c0-5.38-0.21-8.77-0.64-10.16 S586.34,582.9,584.32,582.9z"/>
    <path d="M613.7,581.31v5.3h0.13c2.25-3.53,5.4-5.3,9.45-5.3c1.8,0,3.38,0.37,4.74,1.12c1.36,0.75,2.22,1.51,2.59,2.29 c0.37,0.78,0.56,1.96,0.56,3.54v17.01h3.63v1.9h-16v-1.9h3.69v-17.48c0-1.58-0.22-2.61-0.65-3.09c-0.44-0.48-1.04-0.72-1.83-0.72 c-1.06,0-2.38,0.65-3.94,1.96c-1.57,1.31-2.35,3.61-2.35,6.9v12.43h3.72v1.9h-16.13v-1.9h3.72v-21.26h-3.66v-1.93h2.33 c2.1,0,4.19-0.13,6.25-0.39l2.84-0.39H613.7z"/>
  </g>
  <path d="M 68.11 716.222 C 68.11 716.222 99.235 618.956 103.126 467.222" style=""/>
  <path d="M391,607"/>
  <path class="st3" d="M 101.18 459.44 L 101.18 570.324 L 101.18 681.207" style=""/>
  <line class="st3" x1="124.524" y1="694.824" x2="103.126" y2="467.222" style=""/>
</svg>